<?xml version="1.0" encoding="UTF-8"?>
<svg version="1.1" xmlns="http://www.w3.org/2000/svg" width="50" height="50">
<path d="M0 0 C2.20710504 -0.00654352 4.40966133 -0.06098142 6.6159668 -0.11791992 C18.42232733 -0.25795474 18.42232733 -0.25795474 22.86010742 3.46606445 C27.77344552 8.74466463 26.74206021 15.18206778 26.81591797 21.99414062 C26.83743929 23.48493702 26.87147355 24.97560905 26.91845703 26.46582031 C27.3545547 40.43491322 27.3545547 40.43491322 23.50854492 45.01293945 C18.20359856 49.92899088 11.74744026 48.8508072 4.91772461 48.90600586 C3.4201703 48.92253015 1.92269372 48.94977426 0.42553711 48.98803711 C-1.74121718 49.04309163 -3.90612477 49.0647221 -6.07348633 49.0793457 C-7.36996094 49.09916504 -8.66643555 49.11898437 -10.00219727 49.1394043 C-14.75073797 48.36694226 -16.24836502 46.97467488 -19.58911133 43.5559082 C-22.99854882 38.79400723 -21.96104026 32.36856938 -21.9597168 26.76635742 C-21.9640836 24.69406531 -22.00040818 22.6239167 -22.03833008 20.55200195 C-22.04219727 19.23586914 -22.04606445 17.91973633 -22.05004883 16.5637207 C-22.0582666 15.36376465 -22.06648438 14.16380859 -22.07495117 12.92749023 C-21.37312406 8.05702169 -19.17402574 5.17600956 -15.78564453 1.71240234 C-11.07405282 -0.76829232 -5.22891944 -0.00173737 0 0 Z M-15.58911133 9.5559082 C-17.20367996 14.3996141 -16.81526931 19.35851804 -16.83911133 24.4309082 C-16.85973633 25.52016602 -16.88036133 26.60942383 -16.90161133 27.73168945 C-16.90676758 28.78485352 -16.91192383 29.83801758 -16.91723633 30.9230957 C-16.92658203 31.88328613 -16.93592773 32.84347656 -16.94555664 33.83276367 C-16.51951123 37.08763388 -15.52161982 38.92092664 -13.58911133 41.5559082 C-8.63862909 44.8562297 -3.03171544 43.96619488 2.78588867 43.9934082 C4.01823242 44.0262793 5.25057617 44.05915039 6.52026367 44.09301758 C11.46685301 44.12252543 15.25936782 44.1303107 19.72338867 41.90356445 C22.53461632 36.32666145 22.1294094 30.70333746 22.03588867 24.5559082 C22.05522461 23.28489258 22.07456055 22.01387695 22.09448242 20.7043457 C22.06793864 15.66102672 22.01660997 11.74920708 19.71557617 7.21606445 C14.28717402 4.48903027 8.89113463 4.87682807 2.91088867 4.9934082 C1.0759082 4.97697266 1.0759082 4.97697266 -0.79614258 4.96020508 C-9.01596391 4.94646956 -9.01596391 4.94646956 -15.58911133 9.5559082 Z " fill="#000000" transform="translate(22.589111328125,0.444091796875)"/>
<path d="M0 0 C4.33729795 2.25205855 7.13397371 4.4386024 9 9 C9.53635899 13.82723092 9.52017901 15.97890786 7.3125 20.3125 C3.94954371 24.22080055 1.73527651 25.81069711 -3.4375 26.375 C-7.49115231 25.94829976 -9.67051269 25.36763542 -13 23 C-15.85020706 19.18827731 -17.01842086 16.08683092 -16.9375 11.3125 C-15.5889845 6.54774523 -14.44585288 3.95294849 -10.25 1.1875 C-6.47131569 -0.19317311 -3.99560775 -0.49945097 0 0 Z M-9.4375 7.625 C-11.47161336 10.71685231 -11.60605429 12.36367425 -11 16 C-9.56338689 18.52006844 -9.56338689 18.52006844 -7 20 C-3.56262469 20.42213381 -1.17909511 20.60856522 1.9375 19 C3.65886567 15.75978228 3.52960415 12.58042244 3 9 C2.10242444 6.85219923 2.10242444 6.85219923 0 6 C-3.93094707 5.49969765 -6.1005787 5.4003858 -9.4375 7.625 Z " fill="#000000" transform="translate(29,12)"/>
<path d="M0 0 C0.598125 0.226875 1.19625 0.45375 1.8125 0.6875 C2.4375 2.5 2.4375 2.5 2.8125 4.6875 C1.8225 6.1725 1.8225 6.1725 0.8125 7.6875 C-0.8375 7.3575 -2.4875 7.0275 -4.1875 6.6875 C-4.875 4.875 -4.875 4.875 -5.1875 2.6875 C-3.58493056 0.24147296 -2.95482043 -0.4221172 0 0 Z " fill="#000000" transform="translate(39.1875,8.3125)"/>
<path d="" fill="#000000" transform="translate(0,0)"/>
</svg>
