<?xml version="1.0" encoding="UTF-8"?>
<svg version="1.1" xmlns="http://www.w3.org/2000/svg" width="50" height="50">
<path d="M0 0 C1.15951172 -0.020625 2.31902344 -0.04125 3.51367188 -0.0625 C11.56990592 -0.09914006 17.96919075 -0.04485107 23.99072266 5.8894043 C26.80130505 9.4184962 26.9438864 12.3664069 26.94140625 16.87890625 C26.94381821 17.59102768 26.94623016 18.30314911 26.94871521 19.03684998 C26.94774084 20.53365684 26.93444515 22.03050158 26.90942383 23.52709961 C26.87503265 25.81033238 26.88880074 28.08970546 26.90820312 30.37304688 C26.9013056 31.8333497 26.89163404 33.29364261 26.87890625 34.75390625 C26.86802979 36.07205322 26.85715332 37.3902002 26.84594727 38.74829102 C26.23549235 42.75550146 25.14614124 44.41039947 22.3125 47.25 C17.83913924 49.48668038 11.72303435 48.48011929 6.8125 48.5 C5.56984375 48.520625 4.3271875 48.54125 3.046875 48.5625 C-5.32654032 48.59783087 -13.52674483 48.6173379 -20.2890625 43.14453125 C-22.28315084 39.01710259 -22.20167196 35.4627365 -22.0625 30.9375 C-22.04670898 30.059729 -22.03091797 29.18195801 -22.01464844 28.27758789 C-21.44209923 5.98647321 -21.44209923 5.98647321 -17.796875 2.37890625 C-12.16115924 -0.63724533 -6.23269498 0.02726165 0 0 Z M-6.6875 9.25 C-7.3475 9.91 -8.0075 10.57 -8.6875 11.25 C-8.3689823 13.35820797 -8.3689823 13.35820797 -7.6875 15.25 C-6.0375 14.92 -4.3875 14.59 -2.6875 14.25 C-2.6875 12.93 -2.6875 11.61 -2.6875 10.25 C-4.57929203 9.5685177 -4.57929203 9.5685177 -6.6875 9.25 Z M9.3125 19.25 C9.18875 19.889375 9.065 20.52875 8.9375 21.1875 C8.73125 21.868125 8.525 22.54875 8.3125 23.25 C7.3225 23.745 7.3225 23.745 6.3125 24.25 C7.3025 24.58 8.2925 24.91 9.3125 25.25 C9.9725 28.88 10.6325 32.51 11.3125 36.25 C12.6325 36.25 13.9525 36.25 15.3125 36.25 C15.39376087 34.16731407 15.45180839 32.08371342 15.5 30 C15.53480469 28.83984375 15.56960937 27.6796875 15.60546875 26.484375 C15.29089369 23.01146632 14.83308511 21.62369787 12.3125 19.25 C11.3225 19.25 10.3325 19.25 9.3125 19.25 Z M-6.6875 20.25 C-7.78256492 23.53519475 -7.78710608 25.98663415 -7.75 29.4375 C-7.74097656 30.52417969 -7.73195313 31.61085938 -7.72265625 32.73046875 C-7.71105469 33.56191406 -7.69945312 34.39335938 -7.6875 35.25 C-6.3675 35.25 -5.0475 35.25 -3.6875 35.25 C-3.6875 30.63 -3.6875 26.01 -3.6875 21.25 C-4.6775 20.92 -5.6675 20.59 -6.6875 20.25 Z M0.3125 21.25 C0.6425 25.87 0.9725 30.49 1.3125 35.25 C3.2925 35.745 3.2925 35.745 5.3125 36.25 C5.53531874 34.33496326 5.74021076 32.41783494 5.9375 30.5 C6.11152344 28.89898438 6.11152344 28.89898438 6.2890625 27.265625 C6.31279475 24.21207601 5.92670985 22.78837579 4.3125 20.25 C2.2379644 20.1009288 2.2379644 20.1009288 0.3125 21.25 Z " fill="#000000" transform="translate(22.6875,0.75)"/>
<path d="" fill="#000000" transform="translate(0,0)"/>
<path d="" fill="#000000" transform="translate(0,0)"/>
<path d="" fill="#000000" transform="translate(0,0)"/>
<path d="" fill="#000000" transform="translate(0,0)"/>
<path d="" fill="#000000" transform="translate(0,0)"/>
</svg>
