<?xml version="1.0" encoding="utf-8"?>
<!-- Svg Vector Icons : http://www.onlinewebfonts.com/icon -->
<!DOCTYPE svg PUBLIC "-//W3C//DTD SVG 1.1//EN" "http://www.w3.org/Graphics/SVG/1.1/DTD/svg11.dtd">
<svg version="1.1" xmlns="http://www.w3.org/2000/svg" xmlns:xlink="http://www.w3.org/1999/xlink" x="0px" y="0px" viewBox="0 0 256 256" enable-background="new 0 0 256 256" xml:space="preserve">
<metadata> Svg Vector Icons : http://www.onlinewebfonts.com/icon </metadata>
<g><g><g><path fill="#000000" d="M80.6,17.1C30.2,39.7,1.6,96.8,12.2,153.2c5.3,27.8,44.4,78.9,60.9,78.9c9,0,20.3-51.1,22.6-97.7c0.8-23.3,9-37.6,22.6-37.6c15.8,0,18.8,10.5,11.3,38.3c-6,19.5-5.3,27.8,3.8,36.1c9.8,9.8,12.8,9,25.6-3c19.6-16.5,27.1-57.1,16.5-78.2c-5.3-8.3-17.3-18-27.1-20.3c-43.6-11.3-91,35.3-72.2,70.7c11.3,21.1-5.3,31.6-19.5,12.8c-23.3-33.1,2.3-88,47.4-100.7c57.9-15.8,104.5,13.5,104.5,66.9c0,44.4-24.1,71.4-63.2,71.4c-27.1,0-31.6,2.3-38.3,21.8c-12,34.6-10.5,36.8,30.8,33.1c68.4-6.8,108.3-50.4,108.3-118.8c0-47.4-12-71.4-50.4-100C170.8,8.1,110.7,2.8,80.6,17.1z"/></g></g></g>
</svg>